<svg width="32" height="32" viewBox="0 0 32 32" fill="none" xmlns="http://www.w3.org/2000/svg">
<path d="M15.9916 18.4426C17.5661 18.4426 18.8425 17.1657 18.8425 15.5905C18.8425 14.0152 17.5661 12.7383 15.9916 12.7383C14.417 12.7383 13.1406 14.0152 13.1406 15.5905C13.1406 17.1657 14.417 18.4426 15.9916 18.4426Z" fill="#F8F5EC"/>
<path d="M31.9861 15.5909C31.9861 13.3509 29.3577 11.403 25.269 10.2344C26.2981 6.10218 25.9365 2.84653 23.9896 1.73348C22.0426 0.606527 19.0526 1.92827 15.993 4.87783C12.9335 1.91435 9.9435 0.606527 7.99652 1.73348C6.38331 2.66566 5.78531 5.03087 6.32768 8.39783C6.42503 8.99609 6.5641 9.60827 6.71708 10.2483C2.62842 11.417 0 13.3648 0 15.6048C0 17.8448 2.62842 19.7787 6.71708 20.9613C6.5641 21.5874 6.42503 22.2135 6.32768 22.8117C5.78531 26.1787 6.38331 28.5439 7.99652 29.4761C8.46936 29.7544 9.01173 29.8935 9.60973 29.8935C11.0282 29.8935 12.7388 29.1144 14.6023 27.5978C15.0613 27.2222 15.5341 26.7909 15.993 26.3457C16.452 26.7909 16.9248 27.2222 17.3837 27.5978C19.2473 29.1144 20.9578 29.8935 22.3764 29.8935C22.9744 29.8935 23.5167 29.7544 23.9896 29.4761C25.6028 28.5439 26.2008 26.1787 25.6723 22.8117C25.575 22.2135 25.4359 21.6013 25.2829 20.9613C29.3716 19.7926 32 17.8448 32 15.6048L31.9861 15.5909ZM23.2942 2.93001C24.5458 3.65348 24.824 6.29696 23.92 9.88653C22.6128 9.58044 21.1804 9.35783 19.6645 9.2187C18.7884 7.98044 17.8705 6.85348 16.9665 5.86566C19.0804 3.82044 21.0413 2.7074 22.3903 2.7074C22.7379 2.7074 23.0439 2.77696 23.3081 2.93001H23.2942ZM20.4572 18.1648C19.9565 19.0135 19.442 19.8483 18.9135 20.6274C17.9817 20.697 17.0083 20.7387 16.007 20.7387C15.0056 20.7387 14.0322 20.697 13.1004 20.6274C12.5719 19.8483 12.0435 19.0135 11.5567 18.1648C11.0561 17.3022 10.611 16.4535 10.1938 15.5909C10.611 14.7283 11.0561 13.8796 11.5567 13.017C12.0574 12.1404 12.5858 11.3196 13.1004 10.5544C14.0322 10.4848 15.0056 10.443 16.007 10.443C17.0083 10.443 17.9817 10.4848 18.9135 10.5544C19.442 11.3196 19.9565 12.1404 20.4572 13.017C20.9439 13.8657 21.4029 14.7283 21.8201 15.5909C21.4168 16.4396 20.9718 17.2883 20.4572 18.1648ZM22.5432 17.2187C22.9326 18.1509 23.2664 19.0552 23.5445 19.9457C22.6545 20.1404 21.6949 20.3213 20.6797 20.4465C21.0135 19.9317 21.3333 19.403 21.6532 18.8604C21.9731 18.3178 22.2651 17.7613 22.5432 17.2187ZM15.993 24.3144C15.3672 23.6326 14.7414 22.8813 14.1295 22.0744C14.7414 22.1022 15.3533 22.1161 15.993 22.1161C16.6328 22.1161 17.2447 22.1022 17.8566 22.0744C17.2447 22.8813 16.6189 23.6187 15.993 24.3144ZM11.3064 20.4465C10.2912 20.3213 9.33159 20.1544 8.44155 19.9457C8.71969 19.0552 9.05345 18.1509 9.44285 17.2187C9.72099 17.7613 10.013 18.3178 10.3329 18.8604C10.6528 19.403 10.9726 19.9317 11.3064 20.4465ZM9.44285 13.9491C9.05345 13.017 8.71969 12.1126 8.44155 11.2222C9.33159 11.0274 10.2912 10.8465 11.3064 10.7213C10.9726 11.2361 10.6528 11.7648 10.3329 12.3074C10.013 12.85 9.72099 13.3926 9.44285 13.9491ZM15.993 6.85348C16.605 7.52131 17.2308 8.27261 17.8566 9.09348C17.2447 9.06566 16.6328 9.05174 15.993 9.05174C15.3533 9.05174 14.7414 9.06566 14.1295 9.09348C14.7553 8.27261 15.3672 7.52131 15.993 6.85348ZM21.6532 12.3213C21.3333 11.7787 21.0135 11.25 20.6797 10.7352C21.6949 10.8604 22.6545 11.0274 23.5445 11.2361C23.2803 12.1126 22.9465 13.017 22.5432 13.963C22.2651 13.4204 21.9591 12.8639 21.6532 12.3213ZM7.69057 8.17522C7.25945 5.46218 7.62103 3.55609 8.69187 2.94392C8.95611 2.79087 9.26206 2.72131 9.60973 2.72131C10.9587 2.72131 12.9196 3.83435 15.0335 5.87957C14.1156 6.8674 13.2116 7.99435 12.3355 9.23261C10.8196 9.37174 9.38722 9.59435 8.07996 9.90044C7.92699 9.31609 7.80183 8.73174 7.71838 8.18914L7.69057 8.17522ZM1.3907 15.5909C1.3907 14.1439 3.53238 12.5857 7.09257 11.57C7.49587 12.8639 8.02434 14.2135 8.65015 15.5909C8.02434 16.9544 7.49587 18.3039 7.09257 19.6117C3.54628 18.5961 1.3907 17.0517 1.3907 15.5909ZM13.7262 26.4848C11.5984 28.21 9.76271 28.85 8.69187 28.2378C7.62103 27.6257 7.25945 25.7057 7.69057 23.0065C7.77401 22.45 7.91308 21.8796 8.05215 21.2952C9.35941 21.6013 10.7918 21.8239 12.3077 21.963C13.1838 23.1874 14.0878 24.3283 15.0056 25.33C14.5745 25.7474 14.1434 26.1509 13.7123 26.4987L13.7262 26.4848ZM24.2955 23.0065C24.7266 25.7196 24.3651 27.6257 23.2942 28.2378C22.2234 28.85 20.3877 28.21 18.2599 26.4848C17.8288 26.137 17.3977 25.7335 16.9665 25.3161C17.8983 24.3144 18.8023 23.1874 19.6645 21.963C21.1804 21.8239 22.6128 21.6013 23.92 21.2952C24.073 21.8796 24.1982 22.4639 24.2816 23.0065H24.2955ZM24.8935 19.5978C24.4902 18.3039 23.9618 16.9544 23.3359 15.577C23.9757 14.1857 24.4902 12.8361 24.8935 11.5561C28.4537 12.5717 30.5954 14.1161 30.5954 15.577C30.5954 17.0378 28.4537 18.5822 24.8935 19.5978Z" fill="#89BCD9"/>
</svg>
